<?xml version="1.0" encoding="utf-8"?>
<!-- Generator: Adobe Illustrator 27.5.0, SVG Export Plug-In . SVG Version: 6.00 Build 0)  -->
<svg version="1.1" xmlns="http://www.w3.org/2000/svg" xmlns:xlink="http://www.w3.org/1999/xlink" x="0px" y="0px"
	 viewBox="0 0 500 500" style="enable-background:new 0 0 500 500;" xml:space="preserve">
<g id="Background_Complete">
	<g>
		<g>
			<rect y="382.398" style="fill:#EBEBEB;" width="500" height="0.25"/>
			<path style="fill:#EBEBEB;" d="M237.014,337.8H43.915c-3.147,0-5.708-2.561-5.708-5.708V60.66c0-3.147,2.561-5.708,5.708-5.708
				h193.099c3.146,0,5.707,2.561,5.707,5.708v271.432C242.721,335.239,240.16,337.8,237.014,337.8z M43.915,55.203
				c-3.01,0-5.458,2.448-5.458,5.458v271.432c0,3.01,2.448,5.458,5.458,5.458h193.099c3.009,0,5.457-2.448,5.457-5.458V60.66
				c0-3.009-2.448-5.458-5.457-5.458H43.915z"/>
			<path style="fill:#EBEBEB;" d="M453.31,337.8H260.212c-3.147,0-5.707-2.561-5.707-5.708V60.66c0-3.147,2.561-5.708,5.707-5.708
				H453.31c3.148,0,5.708,2.561,5.708,5.708v271.432C459.019,335.239,456.458,337.8,453.31,337.8z M260.212,55.203
				c-3.009,0-5.457,2.448-5.457,5.458v271.432c0,3.01,2.448,5.458,5.457,5.458H453.31c3.01,0,5.458-2.448,5.458-5.458V60.66
				c0-3.009-2.448-5.458-5.458-5.458H260.212z"/>
		</g>
		<rect x="174.438" y="391.922" style="fill:#EBEBEB;" width="25.997" height="0.25"/>
		<rect x="52.459" y="389.208" style="fill:#EBEBEB;" width="54.101" height="0.25"/>
		<rect x="147.119" y="401.208" style="fill:#EBEBEB;" width="26.317" height="0.25"/>
		<rect x="258.227" y="399.528" style="fill:#EBEBEB;" width="38.832" height="0.25"/>
		<rect x="305.962" y="399.528" style="fill:#EBEBEB;" width="10.694" height="0.25"/>
		<rect x="395.346" y="395.306" style="fill:#EBEBEB;" width="54.556" height="0.25"/>
	</g>
	<g>
		<g>
			<path style="fill:#E6E6E6;" d="M353.217,318.907h61.388c11.72,0,21.287-7.276,21.526-16.371l2.288-56.957
				c0.179-6.818-6.893-12.42-15.679-12.42h-38.483c-7.974,0-14.678,4.644-15.581,10.793L353.217,318.907z"/>
			<path style="fill:#E6E6E6;" d="M324.905,309.777h61.793v9.13h-66.044c-1.347,0-2.44-1.092-2.44-2.439l0,0
				C318.214,312.772,321.21,309.777,324.905,309.777z"/>
			<path style="fill:#E6E6E6;" d="M380.526,382.398h-2.796l-6.582-24.626l-1.403-5.227l-8.715-32.572h-33.408l-16.699,62.424h-2.796
				l17.035-63.712c0.135-0.49,0.692-0.845,1.345-0.845h35.637c0.654,0,1.211,0.356,1.345,0.845l7.658,28.623l1.393,5.237
				L380.526,382.398z"/>
			<path style="fill:#E6E6E6;" d="M434.159,382.398h-2.796l-16.699-62.424h-33.408l-8.715,32.572l-1.393,5.227l-6.591,24.626h-2.796
				l7.985-29.853l1.403-5.237l7.648-28.623c0.135-0.49,0.692-0.845,1.345-0.845h35.637c0.653,0,1.211,0.356,1.345,0.845
				L434.159,382.398z"/>
		</g>
		<g>
			<g>
				<g>
					<rect x="73.028" y="284.083" style="fill:#F0F0F0;" width="31.412" height="92.457"/>
					<rect x="79.059" y="376.54" style="fill:#F0F0F0;" width="138.287" height="5.858"/>
					
						<rect x="104.44" y="284.083" transform="matrix(-1 -1.224647e-16 1.224647e-16 -1 327.8169 660.6234)" style="fill:#F5F5F5;" width="118.938" height="92.457"/>
					
						<rect x="116.789" y="295.463" transform="matrix(-1 -1.224647e-16 1.224647e-16 -1 327.8168 621.2491)" style="fill:#F0F0F0;" width="94.238" height="30.323"/>
					
						<rect x="116.789" y="334.837" transform="matrix(-1 -1.224647e-16 1.224647e-16 -1 327.8168 699.9963)" style="fill:#F0F0F0;" width="94.238" height="30.323"/>
					<path style="fill:#F5F5F5;" d="M177.823,312.704h-27.829c-0.877,0-1.594-0.717-1.594-1.594v-0.97
						c0-0.877,0.717-1.594,1.594-1.594h27.829c0.877,0,1.594,0.717,1.594,1.594v0.97C179.417,311.986,178.7,312.704,177.823,312.704
						z"/>
					<path style="fill:#F5F5F5;" d="M177.823,352.077h-27.829c-0.877,0-1.594-0.717-1.594-1.594v-0.97
						c0-0.877,0.717-1.594,1.594-1.594h27.829c0.877,0,1.594,0.717,1.594,1.594v0.97C179.417,351.36,178.7,352.077,177.823,352.077z
						"/>
				</g>
			</g>
			<g>
				<path style="fill:#E6E6E6;" d="M209.959,265.216h-22.935c0.194-0.558,0.394-1.153,0.596-1.801
					c0.017-0.03,0.027-0.063,0.03-0.098c0.119-0.386,0.239-0.785,0.357-1.199c1.089,1.148,2.348,1.78,3.561,1.78
					c0.13,0,0.26-0.008,0.389-0.023c1.387-0.157,2.47-1.172,2.633-2.466c0.018-0.142-0.075-0.297-0.22-0.37
					c-2.777-1.388-4.931-0.762-6.006-0.234c0.245-0.945,0.476-1.946,0.681-2.987c0.02-0.041,0.031-0.087,0.027-0.138
					c0.057-0.293,0.111-0.588,0.164-0.888c1.3,1.292,2.453,1.929,3.511,1.929c0.001,0,0.003,0,0.004,0
					c1.287-0.003,2.389-0.952,3.367-2.905c0.068-0.137-0.001-0.326-0.156-0.427c-2.535-1.646-5.302-0.523-6.521,0.137
					c0.113-0.773,0.207-1.561,0.278-2.359c0.001-0.005,0.005-0.008,0.006-0.012c0.003-0.012-0.003-0.026-0.002-0.038
					c0.058-0.665,0.1-1.336,0.122-2.012c1.276,1.298,2.32,1.628,3.045,1.628c0.081,0,0.157-0.004,0.23-0.011
					c1.408-0.139,2.492-1.532,2.898-3.727c0.016-0.082-0.008-0.174-0.065-0.253c-0.057-0.079-0.141-0.138-0.232-0.16
					c-2.952-0.73-4.943,0.357-5.857,1.054c-0.006-0.638-0.031-1.278-0.076-1.918c0.243,0.042,0.48,0.069,0.704,0.069
					c2.347,0,3.626-2.09,3.686-2.191c0.046-0.077,0.046-0.178,0.001-0.273c-0.045-0.095-0.13-0.173-0.229-0.209
					c-1.515-0.554-2.709-0.602-3.55-0.143c-0.52,0.285-0.887,0.765-1.091,1.402c-0.823-1.511-2.917-4.401-7.207-5.215
					c-0.094-0.018-0.179,0.004-0.237,0.059c-0.059,0.055-0.085,0.138-0.071,0.227c0.33,2.13,0.947,4.734,2.808,5.976
					c0.706,0.471,1.517,0.706,2.449,0.706c0.644,0,1.351-0.12,2.116-0.344c0.099,1.527,0.082,3.055-0.025,4.55
					c-1.064-1.101-3.757-3.569-7.229-4.419c-0.175-0.045-0.322,0.056-0.33,0.22c-0.095,1.833,0.466,3.32,1.625,4.303
					c0.955,0.809,2.269,1.224,3.818,1.224c0.636,0,1.313-0.073,2.019-0.214c-0.126,1.255-0.308,2.48-0.527,3.657
					c-1.135-0.846-4.403-2.993-7.272-2.099c-0.079,0.025-0.136,0.084-0.157,0.163c-0.021,0.079-0.005,0.171,0.046,0.251
					c1.262,2.029,2.443,3.154,3.715,3.542c0.332,0.101,0.668,0.152,1.012,0.152c0.753,0,1.543-0.25,2.404-0.75
					c-0.333,1.554-0.719,3.006-1.111,4.302c-0.885-0.779-3.188-2.383-6.514-1.638c-0.146,0.032-0.221,0.174-0.174,0.33
					c0.38,1.263,1.531,2.467,2.864,2.996c0.37,0.146,0.891,0.293,1.496,0.293c0.565,0,1.205-0.134,1.862-0.509
					c-0.127,0.382-0.251,0.738-0.373,1.081h-19.483c-0.482-2.247-0.951-4.83-1.314-7.661c0.77,0.251,1.566,0.387,2.374,0.387
					c1.728,0,3.501-0.57,5.157-1.696c2.55-1.734,4.337-4.471,4.445-6.81c0.011-0.238-0.164-0.394-0.424-0.365
					c-5.894,0.6-10.057,4.379-11.807,6.28c-0.264-2.579-0.43-5.32-0.431-8.158c1.232,0.776,2.442,1.185,3.652,1.185
					c0.585,0,1.171-0.091,1.758-0.27c3.138-0.956,6.023-4.409,8.673-7.997c0.101-0.136,0.147-0.289,0.126-0.419
					c-0.019-0.132-0.104-0.228-0.232-0.268c-5.231-1.61-11.819,3.921-13.954,5.894c0.061-2.381,0.244-4.817,0.584-7.268
					c1.221,0.236,2.407,0.361,3.538,0.361c2.943,0,5.535-0.794,7.526-2.343c2.363-1.838,3.729-4.588,3.948-7.95
					c0.018-0.274-0.204-0.432-0.509-0.36c-6.464,1.612-11.888,6.104-14.178,8.228c0.077-0.439,0.153-0.877,0.24-1.316
					c0.023-0.118-0.002-0.215-0.048-0.298c0.022-1.872-0.599-3.229-1.819-3.919c-1.443-0.817-3.648-0.699-6.554,0.35
					c-0.173,0.063-0.331,0.194-0.426,0.353c-0.094,0.159-0.113,0.327-0.052,0.454c0.088,0.182,1.964,3.912,6.209,3.912
					c0.439,0,0.914-0.058,1.406-0.146c-0.231,1.219-0.422,2.438-0.575,3.653c-1.512-1.251-4.953-3.23-10.599-1.81
					c-0.156,0.039-0.308,0.137-0.419,0.271c-0.11,0.132-0.168,0.286-0.159,0.423c0.275,4,1.964,6.518,4.519,6.736
					c0.113,0.01,0.231,0.016,0.356,0.016c1.335,0,3.351-0.614,6.033-3.077c-0.237,2.812-0.293,5.578-0.212,8.242
					c-2.08-1.173-6.963-3.206-12.016-0.117c-0.281,0.171-0.434,0.487-0.346,0.713c1.369,3.516,3.169,5.226,5.503,5.226
					c0.02,0,0.039,0,0.059-0.001c1.948-0.024,4.214-1.223,6.897-3.632c0.152,2.644,0.422,5.164,0.761,7.499
					c-1.951-1.543-4.765-1.299-8.68,0.732c-0.176,0.092-0.32,0.249-0.385,0.421c-0.064,0.171-0.039,0.334,0.065,0.434
					c0.136,0.13,2.461,2.31,5.694,2.31c1.158,0,2.433-0.284,3.764-1.037c0.176,0.998,0.361,1.939,0.549,2.842h-33.231
					c0.637-1.717,1.338-3.728,2.046-5.999c0.036-0.062,0.056-0.131,0.064-0.205c0.251-0.812,0.503-1.651,0.751-2.522
					c2.293,2.415,4.942,3.746,7.496,3.746c0.274,0,0.548-0.016,0.819-0.047c2.919-0.332,5.198-2.467,5.543-5.19
					c0.037-0.298-0.158-0.624-0.463-0.777c-5.844-2.922-10.379-1.603-12.641-0.493c0.516-1.991,1.003-4.096,1.435-6.288
					c0.043-0.086,0.065-0.182,0.056-0.289c0.121-0.616,0.235-1.24,0.345-1.869c2.735,2.72,5.163,4.06,7.389,4.06
					c0.003,0,0.005,0,0.008,0c2.709-0.004,5.028-2.003,7.087-6.113c0.144-0.288-0.001-0.686-0.328-0.898
					c-5.336-3.465-11.159-1.1-13.726,0.288c0.237-1.626,0.435-3.284,0.585-4.966c0.002-0.01,0.012-0.016,0.013-0.026
					c0.005-0.026-0.006-0.053-0.004-0.08c0.122-1.399,0.21-2.811,0.258-4.234c2.686,2.732,4.882,3.427,6.409,3.427
					c0.17,0,0.33-0.009,0.484-0.023c2.963-0.293,5.244-3.225,6.101-7.844c0.033-0.174-0.017-0.368-0.137-0.534
					c-0.12-0.167-0.298-0.29-0.488-0.336c-6.213-1.537-10.404,0.752-12.327,2.219c-0.012-1.344-0.065-2.69-0.159-4.039
					c0.511,0.088,1.01,0.146,1.48,0.146c4.939,0,7.632-4.399,7.758-4.612c0.097-0.162,0.098-0.375,0.002-0.575
					c-0.095-0.201-0.274-0.364-0.482-0.44c-3.189-1.166-5.702-1.268-7.471-0.3c-1.095,0.599-1.866,1.609-2.296,2.951
					c-1.733-3.181-6.139-9.262-15.169-10.977c-0.198-0.038-0.377,0.008-0.499,0.125c-0.125,0.115-0.179,0.289-0.15,0.477
					c0.694,4.482,1.993,9.963,5.91,12.577c1.485,0.991,3.193,1.486,5.154,1.486c1.356,0,2.843-0.252,4.455-0.725
					c0.209,3.215,0.173,6.43-0.052,9.577c-2.241-2.318-7.907-7.511-15.216-9.301c-0.368-0.094-0.677,0.119-0.694,0.465
					c-0.201,3.856,0.981,6.988,3.419,9.056c2.01,1.704,4.775,2.575,8.037,2.575c1.338,0,2.763-0.155,4.25-0.45
					c-0.265,2.641-0.648,5.22-1.109,7.696c-2.39-1.779-9.268-6.3-15.307-4.418c-0.165,0.052-0.287,0.177-0.33,0.343
					c-0.045,0.166-0.011,0.359,0.096,0.529c2.656,4.27,5.142,6.639,7.82,7.454c0.7,0.212,1.407,0.32,2.129,0.32
					c1.585,0,3.247-0.526,5.059-1.58c-0.7,3.272-1.513,6.327-2.339,9.056c-1.863-1.639-6.71-5.016-13.71-3.449
					c-0.308,0.068-0.464,0.366-0.366,0.694c0.798,2.66,3.221,5.194,6.028,6.306c0.779,0.309,1.875,0.616,3.148,0.616
					c1.19,0,2.535-0.282,3.918-1.073c-0.562,1.689-1.101,3.178-1.596,4.483h-21.787c-0.637-1.904-1.293-4.073-1.888-6.442
					c0.7,0.22,1.41,0.339,2.116,0.339c1.509,0,2.998-0.498,4.324-1.481c2.042-1.515,3.309-3.907,3.151-5.95
					c-0.016-0.208-0.186-0.345-0.41-0.32c-5.085,0.524-8.316,3.826-9.64,5.487c-0.509-2.254-0.948-4.648-1.255-7.129
					c1.16,0.678,2.261,1.036,3.319,1.036c0.511,0,1.013-0.079,1.507-0.236c2.639-0.836,4.788-3.852,6.717-6.987
					c0.074-0.119,0.097-0.252,0.065-0.366c-0.031-0.115-0.115-0.2-0.231-0.234c-4.744-1.407-9.905,3.425-11.558,5.149
					c-0.203-2.081-0.305-4.208-0.272-6.35c1.092,0.207,2.141,0.315,3.13,0.315c2.571,0,4.751-0.693,6.324-2.048
					c1.867-1.606,2.764-4.008,2.594-6.946c-0.013-0.239-0.225-0.378-0.484-0.315c-5.475,1.409-9.73,5.333-11.503,7.189
					c0.02-0.383,0.039-0.766,0.069-1.15c0.008-0.103-0.025-0.189-0.074-0.26c-0.182-1.636-0.871-2.821-2.011-3.424
					c-1.349-0.714-3.262-0.61-5.688,0.305c-0.145,0.055-0.269,0.17-0.334,0.309c-0.065,0.14-0.064,0.286,0.003,0.397
					c0.097,0.159,2.137,3.418,5.846,3.418c0.384,0,0.792-0.051,1.212-0.128c-0.071,1.066-0.106,2.13-0.109,3.192
					c-1.456-1.093-4.675-2.823-9.455-1.582c-0.131,0.034-0.254,0.12-0.337,0.236c-0.082,0.116-0.116,0.25-0.093,0.37
					c0.67,3.495,2.417,5.695,4.673,5.886c0.1,0.008,0.204,0.013,0.313,0.013c1.167,0,2.862-0.536,4.941-2.688
					c0.095,2.457,0.345,4.874,0.701,7.202c-1.943-1.025-6.428-2.802-10.511-0.102c-0.227,0.149-0.327,0.426-0.225,0.623
					c1.574,3.072,3.331,4.566,5.37,4.566c0.017,0,0.034,0,0.052-0.001c1.699-0.021,3.55-1.068,5.635-3.173
					c0.417,2.31,0.924,4.512,1.471,6.552c-1.871-1.349-4.303-1.135-7.505,0.639c-0.144,0.08-0.253,0.217-0.291,0.367
					c-0.038,0.149,0.001,0.292,0.104,0.38c0.132,0.114,2.399,2.018,5.224,2.018c1.012,0,2.095-0.248,3.177-0.906
					c0.233,0.776,0.467,1.521,0.7,2.231H86.84v3.996h8.335l5.871,14.871h94.706l5.87-14.871h8.336V265.216z"/>
			</g>
		</g>
		<g>
			<polygon style="fill:#E0E0E0;" points="343.752,67.74 73.028,67.74 73.028,195.225 76.256,195.225 78.132,198.338 
				98.428,198.338 100.304,195.225 343.752,195.225 			"/>
			<polygon style="fill:#E6E6E6;" points="344.877,67.74 74.153,67.74 74.153,195.225 77.381,195.225 79.257,198.338 
				99.553,198.338 101.429,195.225 344.877,195.225 			"/>
			
				<rect x="151.351" y="1.699" transform="matrix(-1.836970e-16 1 -1 -1.836970e-16 340.9973 -78.0331)" style="fill:#FAFAFA;" width="116.328" height="259.566"/>
			<polygon style="fill:#FFFFFF;" points="269.237,189.646 211.363,73.318 187.047,73.318 244.922,189.646 			"/>
			<polygon style="fill:#FFFFFF;" points="233.287,189.646 175.412,73.318 164.635,73.318 222.51,189.646 			"/>
			<circle style="fill:#FAFAFA;" cx="83.36" cy="195.611" r="1.45"/>
			<circle style="fill:#F0F0F0;" cx="87.955" cy="195.611" r="1.45"/>
		</g>
	</g>
</g>
<g id="Background_Simple" style="display:none;">
	<g style="display:inline;">
		<path style="fill:#407BFF;" d="M299.853,327.676c-37.234,8.817-84.371,52.159-117.606,18.03
			c-27.87-28.62-13.982-65.722-55.995-82.145c-30.616-11.968-80.918-33.699-50.114-74.494
			c24.091-31.905,70.176-49.452,108.805-51.865c30.34-1.896,95.889,3.606,111.925,35.362c18.021,35.687-27.322,78.434,33.478,79.967
			c36.592,0.922,83.717,13.545,71.136,63.754c-4.966,19.817-19.423,19.747-35.721,15.962
			C341.706,326.662,325.466,321.611,299.853,327.676z"/>
		<path style="opacity:0.9;fill:#FFFFFF;" d="M299.853,327.676c-37.234,8.817-84.371,52.159-117.606,18.03
			c-27.87-28.62-13.982-65.722-55.995-82.145c-30.616-11.968-80.918-33.699-50.114-74.494
			c24.091-31.905,70.176-49.452,108.805-51.865c30.34-1.896,95.889,3.606,111.925,35.362c18.021,35.687-27.322,78.434,33.478,79.967
			c36.592,0.922,83.717,13.545,71.136,63.754c-4.966,19.817-19.423,19.747-35.721,15.962
			C341.706,326.662,325.466,321.611,299.853,327.676z"/>
	</g>
</g>
<g id="Shadow_1_">
	<ellipse id="_x3C_Path_x3E__71_" style="fill:#F5F5F5;" cx="250" cy="416.238" rx="193.889" ry="11.323"/>
</g>
<g id="Character_2">
	<g>
		<g>
			<rect x="422.123" y="148.129" style="fill:#407BFF;" width="1" height="5.508"/>
			<rect x="422.123" y="126.97" style="fill:#407BFF;" width="1" height="16.442"/>
			<path style="fill:#407BFF;" d="M407.624,91.277H255.073c-6.6,0-12,5.4-12,12v50.249l-16.596,16.596l16.596,16.596v101.225
				c0,6.6,5.4,12,12,12h152.551c6.6,0,12-5.4,12-12V103.277C419.624,96.677,414.224,91.277,407.624,91.277z"/>
			<polygon style="opacity:0.1;fill:#FFFFFF;" points="311.612,299.944 272,299.944 312.047,91.277 351.658,91.277 			"/>
			<polygon style="opacity:0.1;fill:#FFFFFF;" points="341.957,299.944 327.748,299.944 367.794,91.277 382.003,91.277 			"/>
		</g>
		<g>
			<path style="fill:#263238;" d="M342.59,139.391c0-8.609-6.979-15.588-15.588-15.588c-8.609,0-15.588,6.979-15.588,15.588v25.466
				l31.176-11.332V139.391z"/>
			<path style="fill:#FFB573;" d="M314.174,177.197l-1.456,29.391l-0.159,3.734c-0.09,1.57-0.358,2.978-0.701,4.321
				c-0.684,2.681-1.63,5.118-2.684,7.475c-2.149,4.699-4.625,9.051-7.535,13.245l-3.608-2.044c1.846-4.45,3.671-9.008,5.071-13.52
				c0.702-2.252,1.32-4.512,1.668-6.659c0.165-1.068,0.273-2.11,0.253-3.008l-0.058-3.667c-0.052-4.979,0.001-9.945,0.157-14.903
				c0.126-4.964,0.35-9.9,0.697-14.873L314.174,177.197z"/>
			<g>
				<path style="fill:#263238;" d="M308.475,167.228c-3.374,0.859-5.735,14.745-5.735,14.745l9.299,6.324
					c0,0,8.915-14.009,6.32-17.719C315.655,166.715,313.399,165.974,308.475,167.228z"/>
			</g>
			<polygon style="opacity:0.2;" points="308.78,170.329 306.188,184.326 311.414,187.87 			"/>
			<path style="fill:#FFB573;" d="M298.032,233.32l-2.338,7.05l7.835-2.817c0,0,0.827-5.192-1.883-7.251l-0.753,0.294
				C299.405,231.178,298.652,231.734,298.032,233.32z"/>
			<polygon style="fill:#FFB573;" points="296.831,246.352 303.681,245.008 303.528,237.553 295.693,240.37 			"/>
			<g>
				<path style="fill:#263238;" d="M308.475,167.228c0,0-3.9,1.374,3.913,49.414c13.195,0,26.831,0,33.252,0
					c-0.558-13.533-0.574-21.878,5.894-49.652c0,0-6.967-1.516-14.12-1.86c-5.595-0.27-10.18-0.448-15.099,0.001
					C315.83,165.723,308.475,167.228,308.475,167.228z"/>
			</g>
			<polygon style="opacity:0.7;" points="318.259,202.053 326.498,202.053 320.794,185.803 312.555,185.803 			"/>
			<polygon style="fill:#407BFF;" points="317.697,202.053 325.936,202.053 320.232,185.803 311.992,185.803 			"/>
			<path style="fill:#FFB573;" d="M335.918,148.129c-0.952,4.858-1.903,13.76,1.496,17.002c0,0-1.328,4.928-10.355,4.928
				c-9.926,0-4.744-4.928-4.744-4.928c5.418-1.294,5.278-5.313,4.334-9.088L335.918,148.129z"/>
			<path style="opacity:0.2;" d="M332.139,151.358l-5.486,4.681c0.226,0.893,0.403,1.799,0.466,2.68
				c2.07-0.299,4.913-2.571,5.132-4.738C332.361,152.9,332.315,151.861,332.139,151.358z"/>
			<path style="fill:#FFB573;" d="M337.335,136.025c0.986,8.066,1.576,11.458-1.694,16.297c-4.919,7.279-15.041,6.726-18.418-0.882
				c-3.039-6.848-4.141-18.888,3.078-23.506C327.413,123.384,336.349,127.96,337.335,136.025z"/>
			<path style="fill:#263238;" d="M317.614,129.859c-0.056,0.167,11.995,13.004,20.497,11.947c1.78-2.669,0.947-11.058-2.275-12.835
				s-8-4.278-11.222-3.722C321.392,125.803,317.614,129.859,317.614,129.859z"/>
			<path style="fill:#FFFFFF;" d="M312.388,216.642c0,0-9.647,27.995-4.886,83.302h27.835c1.97-29.976,1.401-83.302,1.401-83.302
				H312.388z"/>
			<path style="fill:#FFFFFF;" d="M345.64,216.642l-24.053,0c0,0,6.098,55.931,9.963,83.302h24.898
				C359.454,230.303,345.64,216.642,345.64,216.642z"/>
			<path style="fill:#F5F5F5;" d="M326.28,299.944c0,0-2.388-36.085,0.501-45.863c2.833,14.556,10.976,45.863,10.976,45.863H326.28z
				"/>
			<path style="fill:#263238;" d="M325.008,140.497c0.12,0.649-0.126,1.239-0.551,1.318c-0.424,0.079-0.866-0.384-0.986-1.033
				c-0.12-0.649,0.126-1.239,0.551-1.318C324.447,139.385,324.888,139.848,325.008,140.497z"/>
			<path style="fill:#263238;" d="M317.669,141.856c0.12,0.649-0.126,1.239-0.551,1.318s-0.866-0.384-0.986-1.033
				c-0.12-0.649,0.126-1.239,0.551-1.318C317.107,140.744,317.549,141.206,317.669,141.856z"/>
			<path style="fill:#263238;" d="M316.877,140.823l-1.643-0.161C315.234,140.663,316.26,141.733,316.877,140.823z"/>
			<path style="fill:#ED893E;" d="M320.148,142.606c0,0-0.585,2.999-1.548,4.573c1.005,0.641,2.395,0.006,2.395,0.006
				L320.148,142.606z"/>
			<path style="fill:#263238;" d="M325.008,149.073c-0.29,0.101-0.604,0.186-0.943,0.249c-0.105,0.02-0.207-0.05-0.226-0.155
				c-0.02-0.106,0.059-0.208,0.155-0.226c2.859-0.53,3.813-2.765,3.822-2.787c0.041-0.099,0.154-0.146,0.254-0.104
				c0.099,0.041,0.146,0.155,0.105,0.253C328.136,146.391,327.332,148.261,325.008,149.073z"/>
			<path style="fill:#FFB573;" d="M340.849,142.938c-0.279,1.661-1.299,3.039-2.44,3.824c-1.715,1.181-3.246-0.191-3.332-2.162
				c-0.078-1.774,0.72-4.527,2.713-4.921C339.753,139.29,341.168,141.039,340.849,142.938z"/>
			<path style="fill:#263238;" d="M327.678,138.457c-0.154,0.054-0.332,0.006-0.436-0.131c-1.087-1.427-3.397-1.359-3.42-1.359
				c-0.214,0.008-0.394-0.159-0.402-0.373c-0.008-0.214,0.158-0.394,0.373-0.402c0.111-0.004,2.737-0.08,4.065,1.664
				c0.13,0.17,0.097,0.414-0.073,0.544C327.751,138.424,327.715,138.444,327.678,138.457z"/>
			<path style="fill:#263238;" d="M314.836,138.873c-0.125,0.044-0.269,0.022-0.378-0.069c-0.164-0.138-0.185-0.382-0.047-0.546
				c1.379-1.642,3.16-1.448,3.234-1.439c0.213,0.026,0.364,0.219,0.338,0.432c-0.025,0.212-0.218,0.363-0.43,0.339l0,0
				c-0.059-0.007-1.447-0.145-2.549,1.167C314.958,138.812,314.9,138.851,314.836,138.873z"/>
			<path style="fill:#FFB573;" d="M355.36,176.524c0.952,4.677,1.647,9.284,2.208,13.98c0.572,4.683,0.956,9.403,1.03,14.215
				l0.009,0.45c0.002,0.014,0.003,0.323-0.006,0.501c-0.007,0.199-0.021,0.408-0.067,0.661c-0.116,0.915-0.686,2.175-1.585,2.944
				c-0.878,0.78-1.776,1.08-2.418,1.225c-0.659,0.143-1.227,0.179-1.692,0.167c-0.962-0.017-1.708-0.154-2.419-0.305
				c-0.706-0.154-1.354-0.338-1.979-0.537c-2.489-0.789-4.672-1.814-6.838-2.858c-4.283-2.171-8.328-4.518-12.258-7.19l1.997-3.634
				c2.105,0.86,4.242,1.753,6.368,2.587c2.117,0.861,4.245,1.679,6.369,2.412c2.103,0.758,4.245,1.436,6.225,1.891
				c0.492,0.11,0.971,0.198,1.406,0.251c0.429,0.055,0.838,0.07,1.036,0.038c0.115-0.008,0.127-0.041,0.032-0.023
				c-0.079,0.019-0.427,0.078-0.875,0.467c-0.465,0.381-0.774,1.086-0.814,1.429l-0.03,0.229c-0.008,0.033,0.005,0.197-0.006,0.066
				l-0.037-0.418c-0.372-4.452-1-8.958-1.647-13.465c-0.692-4.493-1.456-9.045-2.225-13.481L355.36,176.524z"/>
			<g>
				<path style="fill:#263238;" d="M351.534,166.99c3.331,1.013,7.333,12.484,7.333,12.484l-12.925,9.241
					c0,0-4.714-9.576-3.314-13.882C344.086,170.349,347.732,165.835,351.534,166.99z"/>
			</g>
			<path style="fill:#263238;" d="M324.216,139.465l-1.643-0.161C322.574,139.304,323.599,140.374,324.216,139.465z"/>
			<path style="fill:#FFB573;" d="M332.202,196.52l-7.992-3.791l2.119,8.052c0,0,4.715,2.352,7.003-0.166L332.202,196.52z"/>
			<polygon style="fill:#FFB573;" points="317.495,194.238 319.634,200.883 326.33,200.78 324.211,192.729 			"/>
			<g>
				<path style="fill:#407BFF;" d="M346.709,217.133c-11.595,1.494-23.335,1.92-35.075,1.258c-0.413-0.021-0.732-0.379-0.712-0.79
					c0.036-0.732,0.074-1.465,0.111-2.197c0.02-0.413,0.37-0.724,0.775-0.703c11.524,0.65,23.044,0.235,34.424-1.234
					c0.402-0.053,0.77,0.24,0.826,0.646c0.098,0.728,0.196,1.455,0.293,2.182C347.405,216.703,347.115,217.085,346.709,217.133z"/>
				<path style="opacity:0.4;" d="M346.709,217.133c-11.595,1.494-23.335,1.92-35.075,1.258c-0.413-0.021-0.732-0.379-0.712-0.79
					c0.036-0.732,0.074-1.465,0.111-2.197c0.02-0.413,0.37-0.724,0.775-0.703c11.524,0.65,23.044,0.235,34.424-1.234
					c0.402-0.053,0.77,0.24,0.826,0.646c0.098,0.728,0.196,1.455,0.293,2.182C347.405,216.703,347.115,217.085,346.709,217.133z"/>
			</g>
		</g>
		<g>
			<path style="fill:#FFFFFF;" d="M334.948,107.792c0,1.988-1.612,3.6-3.6,3.6c-1.988,0-3.6-1.612-3.6-3.6s1.612-3.6,3.6-3.6
				C333.337,104.192,334.948,105.804,334.948,107.792z"/>
			<circle style="fill:#FFFFFF;" cx="317.175" cy="107.792" r="3.6"/>
			<path style="fill:#FFFFFF;" d="M349.122,107.792c0,1.988-1.612,3.6-3.6,3.6c-1.988,0-3.6-1.612-3.6-3.6s1.612-3.6,3.6-3.6
				C347.51,104.192,349.122,105.804,349.122,107.792z"/>
		</g>
	</g>
</g>
<g id="Character_1">
	<g>
		<g>
			<polygon style="fill:#CE7A63;" points="200.859,405.489 208.097,403.808 205.269,386.88 198.031,388.561 			"/>
			<path style="fill:#263238;" d="M208.288,402.884l-8.132,1.888c-0.296,0.069-0.473,0.325-0.426,0.617l1.052,6.505
				c0.109,0.675,0.877,1.159,1.556,0.989c2.82-0.706,4.135-1.186,7.711-2.017c2.2-0.511,11.605-2.455,14.643-3.161
				c2.971-0.69,2.276-3.68,0.927-3.652c-6.047,0.125-13.581,0.109-15.986-1.016C209.201,402.836,208.721,402.784,208.288,402.884z"
				/>
			<polygon style="opacity:0.2;" points="198.03,388.566 205.271,386.884 206.725,395.611 199.484,397.292 			"/>
			<g>
				<path style="fill:#407BFF;" d="M187.16,220.47c0,0,9.539,60.348,12.34,81.399c3.067,23.053,9.547,90.473,9.547,90.473
					l-13.117,3.616c0,0-12.427-65.334-17.548-87.744c-5.558-24.322-17.717-87.744-17.717-87.744H187.16z"/>
				<path style="opacity:0.5;" d="M187.16,220.47c0,0,9.539,60.348,12.34,81.399c3.067,23.053,9.547,90.473,9.547,90.473
					l-13.117,3.616c0,0-12.427-65.334-17.548-87.744c-5.558-24.322-17.717-87.744-17.717-87.744H187.16z"/>
			</g>
			<path style="opacity:0.3;" d="M171.599,241.667c5.019,12.79,4.723,38.083,2.573,46.993c-3.025-14.63-6.487-32.13-9.149-45.74
				C166.04,239.43,168.55,233.887,171.599,241.667z"/>
			<polygon style="fill:#407BFF;" points="195.598,396.216 209.647,392.354 209.421,386.644 193.594,392.101 			"/>
			<path style="fill:#407BFF;" d="M211.137,403.546c-0.668,0.155-1.439,0.19-1.987,0.19c-0.068,0-0.13-0.04-0.157-0.102
				c-0.027-0.063-0.015-0.135,0.031-0.186c0.195-0.214,1.929-2.086,2.891-1.945c0.223,0.032,0.396,0.165,0.5,0.385
				c0.172,0.362,0.17,0.686-0.005,0.961C212.187,403.2,211.698,403.415,211.137,403.546z M209.559,403.384
				c1.353-0.044,2.297-0.305,2.56-0.719c0.109-0.171,0.104-0.377-0.016-0.629c-0.055-0.116-0.131-0.177-0.24-0.193
				C211.346,401.769,210.279,402.656,209.559,403.384z"/>
			<path style="fill:#407BFF;" d="M209.189,403.731c-0.026,0.006-0.054,0.006-0.081-0.001c-0.057-0.015-0.103-0.057-0.121-0.114
				c-0.027-0.086-0.658-2.124-0.085-2.995c0.154-0.235,0.377-0.369,0.662-0.401c0.342-0.038,0.6,0.093,0.726,0.367
				c0.344,0.748-0.395,2.505-1.02,3.1C209.247,403.709,209.219,403.724,209.189,403.731z M209.519,400.577
				c-0.14,0.033-0.248,0.109-0.329,0.232c-0.342,0.52-0.133,1.722,0.042,2.402c0.51-0.676,0.97-1.987,0.744-2.478
				c-0.043-0.094-0.125-0.198-0.377-0.17C209.571,400.566,209.544,400.571,209.519,400.577z"/>
			<path style="fill:#CE7A63;" d="M187.562,163.101c1.158,1.613,2.122,3.081,3.099,4.655c0.958,1.558,1.896,3.124,2.772,4.729
				c1.775,3.192,3.405,6.476,4.857,9.863c0.721,1.696,1.428,3.404,2.048,5.157c0.327,0.865,0.608,1.76,0.902,2.645
				c0.142,0.468,0.3,0.831,0.428,1.384c0.13,0.531,0.261,1.075,0.351,1.695c0.092,0.626,0.181,1.282,0.185,2.191
				c-0.001,0.443-0.02,0.979-0.155,1.676c-0.147,0.68-0.407,1.648-1.277,2.711c-0.438,0.521-1.035,1.008-1.659,1.316
				c-0.632,0.323-1.235,0.47-1.753,0.534c-1.025,0.111-1.698-0.041-2.227-0.18c-1.037-0.299-1.622-0.692-2.164-1.043
				c-1.052-0.713-1.777-1.454-2.473-2.203c-0.685-0.771-1.26-1.509-1.842-2.399l3.693-4.165c1.492,0.557,3.169,1.312,4.263,1.48
				c0.242,0.041,0.473-0.007,0.295-0.118c-0.101-0.049-0.33-0.157-0.919-0.11c-0.302,0.028-0.69,0.116-1.131,0.33
				c-0.426,0.211-0.86,0.544-1.156,0.899c-0.599,0.715-0.721,1.251-0.801,1.5c-0.069,0.262-0.08,0.356-0.113,0.362
				c-0.051,0.032-0.138-0.177-0.257-0.403l-0.406-0.828c-0.15-0.279-0.322-0.732-0.48-1.089c-0.327-0.759-0.635-1.52-0.997-2.27
				c-0.688-1.508-1.397-3.017-2.157-4.506c-1.514-2.982-3.147-5.929-4.85-8.841c-0.855-1.454-1.728-2.899-2.615-4.331
				c-0.873-1.413-1.815-2.898-2.652-4.176L187.562,163.101z"/>
			<path style="fill:#407BFF;" d="M184.766,156.355c-7.359-1.711-11.828,2.988-9.621,12.201c1.21,5.082,3.396,11.23,5.029,15.534
				c0.428,1.141,0.826,2.158,1.152,2.979l16.717-9.318C196.204,170.436,189.689,157.5,184.766,156.355z"/>
			<path style="opacity:0.3;" d="M185.081,165.083c-4.444-3.961,0.1,12.117,1.967,18.797l4.911-2.74
				C191.466,176.51,188.494,168.125,185.081,165.083z"/>
			<polygon style="fill:#CE7A63;" points="145.979,408.668 153.393,408.668 154.491,391.5 147.078,391.5 			"/>
			<path style="fill:#263238;" d="M153.788,407.81h-8.329c-0.303,0-0.533,0.21-0.554,0.506l-0.456,6.59
				c-0.047,0.684,0.589,1.33,1.287,1.318c2.9-0.05,4.287-0.22,7.949-0.22c2.253,0,11.831,0.234,14.943,0.234
				c3.043,0,3.047-3.077,1.731-3.356c-5.903-1.249-13.219-2.973-15.299-4.617C154.686,407.969,154.232,407.81,153.788,407.81z"/>
			<g>
				<polygon style="opacity:0.2;" points="147.076,391.505 154.492,391.505 153.923,400.354 146.506,400.354 				"/>
			</g>
			<g>
				<path style="fill:#407BFF;" d="M172.685,220.47c0,0,0.257,56.277-1.113,77.503c-1.5,23.243-14.453,100.246-14.453,100.246
					H143.54c0,0,6.75-75.126,6.114-98.139c-0.691-24.977-2.144-79.61-2.144-79.61H172.685z"/>
				<path style="opacity:0.5;" d="M172.685,220.47c0,0,0.257,56.277-1.113,77.503c-1.5,23.243-14.453,100.246-14.453,100.246H143.54
					c0,0,6.75-75.126,6.114-98.139c-0.691-24.977-2.144-79.61-2.144-79.61H172.685z"/>
			</g>
			<polygon style="fill:#407BFF;" points="142.993,398.218 157.666,398.218 158.521,393.065 142.32,393.871 			"/>
			<path style="fill:#407BFF;" d="M156.406,409.102c-0.685,0-1.441-0.141-1.973-0.265c-0.066-0.015-0.117-0.068-0.129-0.135
				c-0.012-0.067,0.016-0.135,0.072-0.174c0.238-0.164,2.348-1.599,3.251-1.244c0.209,0.082,0.347,0.251,0.399,0.489
				c0.085,0.393,0.009,0.708-0.224,0.938C157.504,409.002,156.98,409.102,156.406,409.102z M154.909,408.586
				c1.324,0.264,2.301,0.223,2.65-0.121c0.145-0.143,0.186-0.344,0.128-0.617c-0.027-0.126-0.087-0.203-0.189-0.243
				C157.012,407.414,155.774,408.039,154.909,408.586z"/>
			<path style="fill:#407BFF;" d="M154.471,408.841c-0.027,0-0.054-0.006-0.079-0.019c-0.052-0.027-0.087-0.08-0.092-0.139
				c-0.007-0.09-0.156-2.223,0.597-2.943c0.203-0.194,0.45-0.275,0.734-0.241c0.341,0.041,0.562,0.227,0.622,0.523
				c0.165,0.809-0.953,2.356-1.695,2.796C154.533,408.833,154.502,408.841,154.471,408.841z M155.508,405.836
				c-0.144,0-0.266,0.05-0.372,0.152c-0.45,0.43-0.52,1.651-0.505,2.355c0.649-0.544,1.394-1.72,1.286-2.251
				c-0.02-0.101-0.076-0.221-0.328-0.251C155.561,405.837,155.534,405.836,155.508,405.836z"/>
			<path style="fill:#407BFF;" d="M187.16,220.47h-39.65c-0.252-3.54,0.659-15.06,0.165-29.73c-0.332-9.85-1.304-21.12-3.685-32.34
				c-0.174-0.8-0.348-1.59-0.531-2.39c0,0,2.013-0.41,4.896-0.83c2.393-0.35,5.396-0.71,8.337-0.85c5.062-0.24,12.393-0.4,16.85,0
				c2.588,0.24,5.115,0.67,7.132,1.06c2.576,0.52,4.093,0.965,4.093,0.965S194.359,178.78,187.16,220.47z"/>
			<path style="fill:#CE7A63;" d="M187.699,190.386c0,0-1.36-2.319-2.703-3.094c-0.958-0.552-1.68-1.088-2.105-1.429
				c-0.295-0.236-0.73-0.048-0.782,0.328c-0.079,0.577,0.157,1.527,1.583,2.909c0.106,1.833,2.798,3.845,2.798,3.845
				L187.699,190.386z"/>
			<polygon style="opacity:0.3;" points="181.646,194.812 173.406,194.812 179.111,178.562 187.35,178.562 			"/>
			<polygon style="fill:#263238;" points="182.208,194.812 173.969,194.812 179.673,178.562 187.913,178.562 			"/>
			<path style="opacity:0.3;" d="M147.675,190.743c-0.333-9.85-1.303-21.12-3.685-32.34c2.652-0.23,7.18,0.03,7.896,4.31
				C152.66,167.313,151.554,178.133,147.675,190.743z"/>
			<path style="fill:#CE7A63;" d="M151.216,165.412l-4.196,14.433l-2.093,7.211l-1.016,3.6l-0.497,1.797l-0.246,0.899l-0.031,0.112
				c-0.014,0.052,0.008-0.037,0.008-0.049c0.01-0.061,0.015-0.122,0.013-0.184c0.022-0.177,0.001-0.321-0.018-0.563
				c-0.053-0.425-0.266-0.984-0.513-1.329c-0.247-0.357-0.51-0.541-0.607-0.604c-0.264-0.132-0.087,0.03,0.185,0.132
				c0.588,0.243,1.609,0.456,2.664,0.579c2.148,0.267,4.564,0.325,6.981,0.307c4.852-0.06,9.905-0.34,14.859-0.681l1.098,5.457
				c-5.014,1.568-10.015,2.801-15.279,3.592c-2.64,0.379-5.307,0.684-8.229,0.656c-1.474-0.034-2.992-0.111-4.846-0.569
				c-0.939-0.263-1.97-0.554-3.262-1.439c-0.619-0.422-1.337-1.066-1.933-1.951c-0.606-0.868-1.039-2.044-1.143-3.102
				c-0.074-0.556-0.052-1.02-0.023-1.512c0.023-0.218,0.053-0.436,0.088-0.654l0.071-0.403l0.176-0.958l0.356-1.913
				c0.24-1.273,0.5-2.54,0.775-3.799c0.539-2.524,1.106-5.035,1.732-7.527c1.227-5.002,2.6-9.906,4.184-14.844L151.216,165.412z"/>
			<path style="fill:#407BFF;" d="M143.459,156.01c-4.941,1.145-10.479,14.162-12.433,21.475c-0.327,1.241-0.587,2.315-0.786,3.135
				c-0.259,1.085-0.401,1.728-0.401,1.728l16.575,4.72c0.339-0.821,0.753-1.838,1.199-2.979c1.701-4.304,3.984-10.452,5.274-15.534
				C155.239,159.343,150.845,154.299,143.459,156.01z"/>
			<path style="fill:#CE7A63;" d="M172.742,154.27c-4.891-1.16-5.727-4.19-5.371-7.52c0.077-0.81,0.223-1.65,0.41-2.48l-6.1-5.1
				l-4.48-3.74c1.207,5.43,2.539,15.32-1.16,18.94c0,0,7.404,6.386,16.167,10.094C178.015,160.208,172.742,154.27,172.742,154.27z"
				/>
			<path style="opacity:0.2;" d="M167.781,144.269c-0.187,0.83-0.333,1.67-0.41,2.48c-2.286-0.46-5.731-2.5-6.044-5.083
				c-0.107-0.881,0.289-1.887,0.354-2.497L167.781,144.269z"/>
			<path style="fill:#263238;" d="M179.213,118.205c2.123,3.386-1.897,13.11-6.996,12.41
				C167.118,129.915,175.191,111.793,179.213,118.205z"/>
			<path style="fill:#CE7A63;" d="M157.654,124.478c-0.908,7.328-1.809,11.562,1.12,16.053c4.405,6.755,13.87,5.344,16.927-1.509
				c2.751-6.169,3.775-17.117-2.705-21.504C166.611,113.196,158.562,117.149,157.654,124.478z"/>
			<path style="fill:#263238;" d="M156.798,130.097c3.749-0.472,6.466-6.712,5.697-9.638c2.755,2.033,24.661,4.541,21.327-9.75
				c-6.25,0-32.333-1.167-28.035,4.458c-2.953,0.042-5.84,2.72-3.801,9C154.081,130.625,156.798,130.097,156.798,130.097z"/>
			<path style="fill:#CE7A63;" d="M153.594,131.058c0.703,1.883,2.075,3.322,3.416,4.056c2.017,1.103,3.197-0.724,2.781-3.023
				c-0.375-2.069-1.876-5.137-3.969-5.286C153.759,126.658,152.79,128.905,153.594,131.058z"/>
			<path style="fill:#263238;" d="M168.15,128.837c-0.11,0.589,0.11,1.133,0.492,1.215c0.382,0.082,0.78-0.329,0.89-0.918
				c0.11-0.589-0.111-1.133-0.492-1.215C168.658,127.836,168.259,128.247,168.15,128.837z"/>
			<path style="fill:#263238;" d="M174.747,130.254c-0.11,0.589,0.111,1.133,0.492,1.215s0.78-0.329,0.89-0.918
				c0.11-0.589-0.11-1.133-0.492-1.215C175.255,129.254,174.857,129.665,174.747,130.254z"/>
			<path style="fill:#BA4D3C;" d="M172.595,130.097c0,0,0.694,3.683,1.849,5.637c-1.214,0.751-2.887-0.071-2.887-0.071
				L172.595,130.097z"/>
			<path style="fill:#263238;" d="M168.877,136.736c-2.223-0.763-2.979-2.579-3.013-2.663c-0.036-0.089,0.007-0.192,0.097-0.229
				c0.09-0.037,0.192,0.006,0.228,0.095c0.009,0.021,0.867,2.09,3.434,2.639c0.096,0.02,0.154,0.113,0.133,0.209
				c-0.021,0.095-0.115,0.155-0.21,0.135C169.31,136.871,169.087,136.809,168.877,136.736z"/>
			<path style="fill:#263238;" d="M166.51,126.248c-0.054-0.019-0.105-0.051-0.146-0.097c-0.129-0.144-0.116-0.366,0.029-0.496
				c1.435-1.286,3.002-0.852,3.067-0.832c0.18,0.033,0.292,0.248,0.236,0.435c-0.055,0.186-0.25,0.293-0.436,0.24
				c-0.065-0.018-1.274-0.332-2.401,0.679C166.76,126.266,166.626,126.288,166.51,126.248z"/>
			<path style="fill:#263238;" d="M178.01,128.575c-0.106-0.036-0.192-0.123-0.223-0.239c-0.412-1.54-1.637-1.985-1.649-1.989
				c-0.183-0.064-0.278-0.264-0.213-0.447c0.065-0.183,0.265-0.279,0.447-0.217c0,0,0.001,0,0.002,0.001
				c0.065,0.023,1.586,0.575,2.091,2.466c0.05,0.187-0.061,0.38-0.249,0.432C178.145,128.6,178.074,128.597,178.01,128.575z"/>
			<path style="fill:#CE7A63;" d="M165.436,191.375l7.925-4.097l-1.406,9.25c0,0-6.51,1.787-7.127-1.639L165.436,191.375z"/>
			<path style="fill:#CE7A63;" d="M170.844,188.579c0,0,1.737-2.078,3.195-2.634c1.039-0.397,2.056-1.173,2.534-1.444
				c0.331-0.188,0.729,0.066,0.716,0.445c-0.02,0.581-0.628,1.842-2.27,2.986c-0.417,1.792-3.415,3.361-3.415,3.361L170.844,188.579
				z"/>
			<path style="fill:#CE7A63;" d="M179.845,188.562l-1.114,5.771c-0.096,0.497-0.483,0.889-0.979,0.992l-5.798,1.203l1.405-9.169
				l5.209-0.267C179.372,187.051,179.997,187.771,179.845,188.562z"/>
			<polyline style="fill:#CE7A63;" points="164.828,194.889 165.436,191.375 173.361,187.278 			"/>
			<path style="fill:#CE7A63;" d="M191.207,192.136l-6.304-3.817l-0.464,8.209c0,0,6.649,2.548,7.319-0.878L191.207,192.136z"/>
			<path style="fill:#CE7A63;" d="M182.008,188.409l-0.495,6.473c-0.028,0.365,0.192,0.701,0.537,0.82l2.39,0.826l0.464-8.209
				l-1.823-0.621C182.579,187.527,182.048,187.879,182.008,188.409z"/>
		</g>
		<g>
			<path style="fill:#407BFF;" d="M172.694,87.207c0,1.988-1.612,3.6-3.6,3.6c-1.988,0-3.6-1.612-3.6-3.6c0-1.988,1.612-3.6,3.6-3.6
				C171.083,83.607,172.694,85.219,172.694,87.207z"/>
			<path style="fill:#407BFF;" d="M158.521,89.333c0,1.988-1.612,3.6-3.6,3.6c-1.988,0-3.6-1.612-3.6-3.6c0-1.988,1.612-3.6,3.6-3.6
				C156.909,85.733,158.521,87.345,158.521,89.333z"/>
			<circle style="fill:#407BFF;" cx="183.268" cy="91.459" r="3.6"/>
		</g>
	</g>
</g>
</svg>
